<?xml version="1.0" encoding="utf-8"?>
<!-- Generator: Adobe Illustrator 27.9.2, SVG Export Plug-In . SVG Version: 6.00 Build 0)  -->
<svg version="1.1" xmlns="http://www.w3.org/2000/svg" xmlns:xlink="http://www.w3.org/1999/xlink" x="0px" y="0px"
	 viewBox="0 0 630 630" style="enable-background:new 0 0 630 630;" xml:space="preserve">
<style type="text/css">
	.st0{display:none;}
	.st1{display:inline;}
	.st2{fill-rule:evenodd;clip-rule:evenodd;fill:#231F20;}
	.st3{fill-rule:evenodd;clip-rule:evenodd;fill:#FFFFFF;}
	.st4{fill-rule:evenodd;clip-rule:evenodd;fill:#73C791;}
</style>
<g id="Layer_1" class="st0">
	<g id="XMLID_6_" class="st1">
		
			<ellipse id="XMLID_4_" transform="matrix(0.7071 -0.7071 0.7071 0.7071 -201.6562 -460.7981)" class="st2" cx="-657.06" cy="13.02" rx="224.85" ry="224.85"/>
		<path id="XMLID_147_" class="st3" d="M-699.22,182.68h61.34V41.18h45.31l9.06-57.16h-54.37v-43.22
			c0-16.03,15.34-25.09,29.97-25.09h26.49v-47.4l-47.4-2.09c-45.31-2.79-70.4,32.76-70.4,75.28v42.52h-51.58v57.16h51.58V182.68z"/>
	</g>
	<g id="XMLID_8_" class="st1">
		
			<ellipse id="XMLID_15_" transform="matrix(0.7071 -0.7071 0.7071 0.7071 -11.8929 -2.6688)" class="st2" cx="-9.17" cy="13.02" rx="224.85" ry="224.85"/>
		<path id="XMLID_3_" class="st3" d="M-75.3-130.21H56.96c42.49,0,77.44,34.95,77.44,77.44V78.81c0,42.49-34.95,77.44-77.44,77.44
			H-75.3c-42.49,0-77.44-34.95-77.44-77.44V-52.77C-152.74-95.26-117.79-130.21-75.3-130.21L-75.3-130.21z M67.93-80.18L67.93-80.18
			c8.91,0,16.45,7.54,16.45,16.45l0,0c0,8.91-7.54,16.45-16.45,16.45l0,0c-9.59,0-16.45-7.54-16.45-16.45l0,0
			C51.48-72.64,58.34-80.18,67.93-80.18L67.93-80.18z M-9.51-65.1h0.69c42.49,0,78.13,35.64,78.13,78.13l0,0
			c0,43.17-35.64,78.13-78.13,78.13h-0.69c-42.49,0-77.44-34.95-77.44-78.13l0,0C-86.95-29.47-52-65.1-9.51-65.1L-9.51-65.1z
			 M-9.51-38.38h0.69c28.1,0,51.4,23.3,51.4,51.4l0,0c0,28.78-23.3,52.08-51.4,52.08h-0.69c-28.1,0-51.4-23.3-51.4-52.08l0,0
			C-60.91-15.08-37.61-38.38-9.51-38.38L-9.51-38.38z M-74.62-105.54H56.28c29.47,0,53.45,23.99,53.45,53.45V78.13
			c0,29.47-23.99,53.45-53.45,53.45H-74.62c-29.47,0-53.45-23.99-53.45-53.45V-52.08C-128.07-81.55-104.08-105.54-74.62-105.54
			L-74.62-105.54z"/>
	</g>
	<g id="XMLID_14_" class="st1">
		
			<ellipse id="XMLID_19_" transform="matrix(0.7071 -0.7071 0.7071 0.7071 -249.1916 632.3552)" class="st2" cx="638.72" cy="616.98" rx="224.85" ry="224.85"/>
		<path id="XMLID_7_" class="st3" d="M588.18,551.99c7.94-5.05,13-1.44,15.88,6.5l7.22,18.77c0,0,5.05,10.11-7.94,20.22
			c-2.17,1.44-2.17,1.44-1.44,5.05c2.89,8.66,14.44,34.66,51.27,54.88c3.61,2.17,4.33,2.17,7.94-0.72c2.89-2.89,6.5-6.5,9.39-9.39
			c6.5-5.78,10.11-7.94,15.88-3.61c4.33,2.89,8.66,6.5,13,9.39c4.33,3.61,11.55,7.94,4.33,16.61l-6.5,7.94
			c-9.39,11.55-17.33,12.27-29.6,9.39c-46.93-12.27-81.59-45.49-96.75-92.42C565.8,576.54,573.02,561.38,588.18,551.99
			L588.18,551.99z M638.72,474.74c78.7,0,142.24,63.54,142.24,142.24c0,78.7-63.54,142.24-142.24,142.24
			c-21.66,0-41.88-4.33-59.93-13l-75.81,13l10.11-75.09l-0.72-1.44c-10.11-19.5-15.88-41.88-15.88-65.71
			C496.48,538.28,560.02,474.74,638.72,474.74L638.72,474.74z M549.19,727.45l20.22-3.61l12.27-2.17
			c17.33,9.39,36.1,14.44,57.04,14.44c65.71,0,119.14-53.43,119.14-119.14c0-65.71-53.43-119.14-119.14-119.14
			s-119.14,53.43-119.14,119.14c0,23.83,7.22,45.49,18.77,64.26l-1.44,10.83l-2.89,21.66l-2.17,16.61L549.19,727.45z"/>
	</g>
	<g id="XMLID_11_" class="st1">
		
			<ellipse id="XMLID_22_" transform="matrix(0.7071 -0.7071 0.7071 0.7071 367.7637 913.9032)" class="st2" cx="1287.06" cy="13.02" rx="224.85" ry="224.85"/>
		<path id="XMLID_9_" class="st3" d="M1405.59-56.35c-13.82-1.88-25.76-9.42-35.81-20.73c-11.94-13.19-18.85-30.78-18.22-47.74
			h-13.82h-35.81V-7.98v81.04c0,23.24-18.85,42.09-42.72,42.09c-13.82,0-26.38-6.91-34.55-17.59c-5.03-6.91-7.54-15.71-7.54-24.5
			c0-23.24,18.85-42.09,42.09-42.09c4.4,0,8.79,0.63,12.56,1.88V-17.4c-3.77-0.63-8.17-1.26-12.56-1.26c-0.63,0-1.26,0-1.88,0
			c-50.26,1.26-89.83,42.09-89.83,91.72c0,23.87,9.42,45.86,24.5,62.19c16.96,17.59,40.83,28.9,67.22,28.9
			c50.88,0,92.35-40.83,92.35-91.09V-29.96c18.85,16.96,43.35,25.13,68.47,23.24v-49.63C1415.01-55.09,1409.98-55.09,1405.59-56.35z
			"/>
	</g>
	<g id="XMLID_12_" class="st1">
		
			<ellipse id="XMLID_37_" transform="matrix(0.7071 -0.7071 0.7071 0.7071 -59.2983 1090.7981)" class="st2" cx="1287.06" cy="616.98" rx="224.85" ry="224.85"/>
		<path id="XMLID_13_" class="st3" d="M1162.01,571.84h50.64v170.04h-50.64V571.84z M1187.01,485.58
			c16.88,0,30.63,13.75,30.63,30.63c0,16.88-13.75,30.63-30.63,30.63c-16.88,0-30.01-13.75-30.01-30.63
			C1157.01,499.33,1170.13,485.58,1187.01,485.58L1187.01,485.58z M1242.65,571.84h50.01v23.76c10.63-15.63,28.13-25.63,48.14-25.63
			h13.75c31.88,0,57.51,26.26,57.51,57.51v25.63v30.63v58.14h-50.01v-0.63v-15l0,0v-76.27l0,0c-0.63-19.38-13.75-34.38-33.13-34.38
			l0,0c-19.38,0-35.63,15-36.26,34.38l0,0v66.26v25.63h-50.01V571.84z"/>
	</g>
	<g id="XMLID_18_" class="st1">
		
			<ellipse id="XMLID_17_" transform="matrix(0.7071 -0.7071 0.7071 0.7071 -628.7182 -283.9032)" class="st2" cx="-657.06" cy="616.98" rx="224.85" ry="224.85"/>
		<g id="XMLID_2_">
			<path id="XMLID_69_" class="st3" d="M-739.62,521.85c26.92-2.15,58.69-3.23,82.92-3.23l0,0l0,0c24.23,0,55.46,1.08,82.92,3.23
				c31.77,2.69,47.92,8.08,52.23,39.85c2.15,14.54,3.23,34.46,3.23,54.92l0,0c0,20.46-1.08,40.92-3.23,54.92
				c-4.31,32.31-20.46,37.15-52.23,39.85c-27.46,2.69-58.69,3.23-82.92,3.23l0,0l0,0c-24.23,0-56-0.54-82.92-3.23
				c-31.77-2.69-48.46-7.54-52.77-39.85c-1.62-14-2.69-34.46-2.69-54.92l0,0c0-20.46,1.08-40.38,2.69-54.92
				C-788.08,529.93-771.39,524.54-739.62,521.85L-739.62,521.85z"/>
			<polygon id="XMLID_68_" class="st2" points="-684.7,575.16 -612.55,616.62 -684.7,658.62 			"/>
		</g>
	</g>
	<g id="XMLID_10_" class="st1">
		
			<ellipse id="XMLID_30_" transform="matrix(0.7071 -0.7071 0.7071 0.7071 177.8704 455.4603)" class="st2" cx="638.72" cy="13.02" rx="224.85" ry="224.85"/>
		<path id="XMLID_36_" class="st3" d="M641.21-26.94C630.13-85.29,700.3-120,741.65-77.9c0,0,18.46-5.17,34.71-15.51
			c0,0-5.91,19.94-25.85,32.5c0,0,22.16-2.95,31.76-8.86c0,0-9.6,19.94-27.33,27.33C764.55,91.23,620.53,172.47,503.84,106
			c0,0,57.61,2.95,81.98-25.11c0,0-35.45,2.95-53.18-39.88c0,0,13.29,5.17,26.59-1.48c0,0-41.36-6.65-45.05-56.13
			c0,0,13.29,10.34,28.07,6.65c0,0-45.79-27.33-19.94-76.81C522.3-86.77,571.05-24.73,641.21-26.94L641.21-26.94z"/>
	</g>
	<g id="XMLID_16_" class="st1">
		
			<ellipse id="XMLID_31_" transform="matrix(0.7071 -0.7071 0.7071 0.7071 -438.9549 174.226)" class="st2" cx="-9.17" cy="616.98" rx="224.85" ry="224.85"/>
		<g id="XMLID_189_">
			<path id="XMLID_73_" class="st3" d="M-142.94,611.41c61.85-25.94,136.67-62.85,201.52-87.79c59.86-21.95,58.86-15.96,49.88,43.89
				c-6.98,47.89-14.96,95.77-22.94,143.66c-2.99,22.94-14.96,34.92-39.9,20.95l-77.81-54.87c-10.97-8.98-7.98-15.96,1-24.94
				l71.83-67.84c18.95-18.95,9.98-25.94-11.97-10.97l-98.76,66.84c-13.97,9.98-28.93,9.98-44.89,4.99l-33.92-11.97
				C-170.87,625.38-153.91,616.4-142.94,611.41L-142.94,611.41z"/>
		</g>
	</g>
</g>
<g id="Layer_2">
	
		<ellipse id="XMLID_00000154419774115973004940000015762234159101492098_" transform="matrix(0.7071 -0.7071 0.7071 0.7071 -130.4773 315)" class="st4" cx="315" cy="315" rx="224.85" ry="224.85"/>
	<path id="XMLID_00000017513372809878733500000010472735184664039357_" class="st3" d="M248.87,171.77h132.27
		c42.49,0,77.44,34.95,77.44,77.44v131.58c0,42.49-34.95,77.44-77.44,77.44H248.87c-42.49,0-77.44-34.95-77.44-77.44V249.21
		C171.43,206.72,206.38,171.77,248.87,171.77L248.87,171.77z M392.1,221.8L392.1,221.8c8.91,0,16.45,7.54,16.45,16.45l0,0
		c0,8.91-7.54,16.45-16.45,16.45l0,0c-9.59,0-16.45-7.54-16.45-16.45l0,0C375.65,229.34,382.5,221.8,392.1,221.8L392.1,221.8z
		 M314.66,236.87h0.69c42.49,0,78.13,35.64,78.13,78.13l0,0c0,43.17-35.64,78.13-78.13,78.13h-0.69
		c-42.49,0-77.44-34.95-77.44-78.13l0,0C237.22,272.51,272.17,236.87,314.66,236.87L314.66,236.87z M314.66,263.6h0.69
		c28.1,0,51.4,23.3,51.4,51.4l0,0c0,28.78-23.3,52.08-51.4,52.08h-0.69c-28.1,0-51.4-23.3-51.4-52.08l0,0
		C263.26,286.9,286.56,263.6,314.66,263.6L314.66,263.6z M249.55,196.44h130.89c29.47,0,53.45,23.99,53.45,53.45V380.1
		c0,29.47-23.99,53.45-53.45,53.45H249.55c-29.47,0-53.45-23.99-53.45-53.45V249.9C196.1,220.43,220.08,196.44,249.55,196.44
		L249.55,196.44z"/>
</g>
</svg>
