<?xml version="1.0" encoding="utf-8"?>
<!-- Generator: Adobe Illustrator 28.3.0, SVG Export Plug-In . SVG Version: 6.00 Build 0)  -->
<svg version="1.1" id="Layer_1" xmlns="http://www.w3.org/2000/svg" xmlns:xlink="http://www.w3.org/1999/xlink" x="0px" y="0px"
	 viewBox="0 0 200 87.5" style="enable-background:new 0 0 200 87.5;" xml:space="preserve">
<style type="text/css">
	.st0{display:none;}
	.st1{display:inline;fill:#359144;}
	.st2{display:inline;fill:#23488F;stroke:#000000;stroke-miterlimit:10;}
	.st3{display:inline;fill:#A6DFF8;}
	.st4{display:inline;fill:#74C591;stroke:#000000;stroke-miterlimit:10;}
	.st5{display:inline;fill:#F3FAFE;stroke:#000000;stroke-miterlimit:10;}
	.st6{display:inline;fill:#36B14A;}
	.st7{display:inline;fill:#2B50A3;}
	.st8{display:inline;fill:#9EDBEB;stroke:#000000;stroke-miterlimit:10;}
	.st9{display:inline;fill:#74C591;}
	.st10{display:inline;fill:#F3FAFE;}
	.st11{display:inline;fill:#048442;}
	.st12{display:inline;fill:#349244;stroke:#000000;stroke-miterlimit:10;}
	.st13{fill:#349244;stroke:#F3FAFE;stroke-width:0.5;stroke-miterlimit:10;}
	.st14{fill:#349244;stroke:#F3FAFE;stroke-width:0.5;}
	.st15{fill:#349244;stroke:#F3FAFE;stroke-width:0.5;stroke-miterlimit:9.9999;}
	.st16{fill:none;stroke:#349244;stroke-width:0.5;stroke-linecap:round;stroke-miterlimit:10;}
	.st17{fill:#349244;stroke:#F3FAFE;stroke-width:0.5;stroke-linecap:round;stroke-miterlimit:10;}
</style>
<g id="background" class="st0">
	<rect y="-53.3" class="st1" width="200" height="200"/>
</g>
<g id="color_palettes" class="st0">
	<rect x="213.8" y="-48.5" class="st2" width="23.6" height="23.6"/>
	<rect x="213.8" y="-19.7" class="st3" width="23.6" height="23.6"/>
	<rect x="213.8" y="37.8" class="st4" width="23.6" height="23.6"/>
	<rect x="213.8" y="66.5" class="st5" width="23.6" height="23.6"/>
	<rect x="213.8" y="9" class="st6" width="23.6" height="23.6"/>
	<rect x="244" y="-48.5" class="st7" width="23.6" height="23.6"/>
	<rect x="244" y="-19.7" class="st8" width="23.6" height="23.6"/>
	<rect x="244" y="37.8" class="st9" width="23.6" height="23.6"/>
	<rect x="244" y="66.5" class="st10" width="23.6" height="23.6"/>
	<rect x="244" y="9" class="st11" width="23.6" height="23.6"/>
	<rect x="274.3" y="9" class="st12" width="23.6" height="23.6"/>
</g>
<g id="design">
	<path class="st13" d="M25.9,34.3c0.1,0,0.1,0,0.2,0.1c0.4,0.8,0.6,1.6,0.9,2.4c0.2,0.9,0.4,1.7,0.4,2.6c0,0.9-0.2,1.8-0.5,2.7
		c-0.3,0.9-0.8,1.7-1.4,2.3s-1.3,1.2-2.2,1.6s-1.8,0.6-2.7,0.6c-0.7,0-1.2-0.1-1.7-0.4s-0.9-0.6-1.3-1s-0.7-0.8-0.9-1.2
		s-0.5-0.9-0.7-1.2c-0.2-0.4-0.4-0.7-0.7-1s-0.5-0.4-0.8-0.4c-0.2,0-0.4,0.1-0.5,0.1s-0.2,0.2-0.3,0.3s-0.1,0.3-0.1,0.5s0,0.3,0,0.5
		c0,0.5,0.1,1,0.3,1.5c0.2,0.5,0.3,1,0.5,1.4c0,0,0,0,0,0l-5.9,0.8c-0.1,0-0.2,0-0.2-0.1c-0.2-0.7-0.4-1.5-0.5-2.2
		c-0.1-0.8-0.2-1.6-0.2-2.3c0-1,0.1-2,0.4-2.9c0.3-0.9,0.7-1.6,1.3-2.2c0.6-0.6,1.2-1.1,2-1.4c0.8-0.3,1.7-0.5,2.8-0.5
		c0.8,0,1.5,0.1,2,0.3c0.5,0.2,1,0.5,1.4,0.9c0.4,0.3,0.7,0.7,0.9,1.1s0.4,0.8,0.6,1.1c0.2,0.3,0.4,0.6,0.5,0.9s0.4,0.3,0.6,0.3
		c0.2,0,0.3,0,0.5-0.1s0.2-0.2,0.4-0.3c0.1-0.1,0.2-0.3,0.2-0.4s0.1-0.3,0.1-0.4c0-0.5-0.1-1-0.4-1.4c-0.2-0.5-0.5-0.8-0.7-1.2
		c0,0,0-0.1,0-0.1L25.9,34.3z"/>
	<path class="st13" d="M101.6,10.3v5.9c0,0.1,0.1,0.2,0.2,0.2h9.8c0.1,0,0.1,0,0.1,0.1l-0.1,5h6.1V10.3c0-0.1-0.1-0.1-0.1-0.1h-15.8
		C101.7,10.2,101.6,10.2,101.6,10.3z"/>
	<g>
		<path class="st14" d="M123.4,40.1c0,1.4-0.2,2.8-0.5,4.1c-0.3,1.3-0.8,2.6-1.4,3.7c-0.6,1.2-1.4,2.2-2.2,3.2s-1.9,1.8-3,2.5
			s-2.3,1.2-3.6,1.6c-1.3,0.4-2.7,0.6-4.1,0.6c-1.4,0-2.7-0.2-4-0.5c-1.3-0.4-2.5-0.9-3.6-1.5s-2.1-1.4-3-2.3
			c-0.9-0.9-1.7-1.9-2.3-3s-1.1-2.3-1.5-3.6s-0.5-2.6-0.5-4c0-1.4,0.2-2.7,0.5-4c0.3-1.3,0.8-2.5,1.4-3.7c0.6-1.2,1.4-2.2,2.2-3.2
			s1.8-1.8,2.9-2.5c1.1-0.7,2.3-1.2,3.5-1.6s2.6-0.6,4-0.6c2.3,0,4.3,0.3,6.2,1.1c1.9,0.7,3.4,1.7,4.8,3c1.3,1.3,2.3,2.9,3.1,4.7
			S123.4,37.9,123.4,40.1z M113.1,40.7c0-0.7-0.1-1.3-0.3-1.9s-0.5-1.2-0.8-1.7c-0.4-0.5-0.8-0.9-1.4-1.2s-1.2-0.5-1.9-0.5
			c-0.7,0-1.4,0.1-2,0.4c-0.6,0.3-1.1,0.6-1.5,1.1c-0.4,0.5-0.7,1-0.9,1.6s-0.3,1.3-0.3,1.9c0,0.7,0.1,1.3,0.3,2s0.5,1.2,0.8,1.8
			c0.4,0.5,0.8,1,1.4,1.3s1.2,0.5,1.9,0.5s1.4-0.1,2-0.4s1.1-0.7,1.5-1.2c0.4-0.5,0.7-1.1,0.9-1.7C112.9,42.1,113.1,41.4,113.1,40.7
			z"/>
		<path class="st14" d="M99,52c-0.6,0.7-1.2,1-2.1,1.6c-1.1,0.7-2.3,1.2-3.6,1.6c-1.3,0.4-2.7,0.6-4.1,0.6c-1.4,0-2.7-0.2-4-0.5
			c-1.3-0.4-2.5-0.9-3.6-1.5s-2.1-1.4-3-2.3c-0.9-0.9-1.7-1.9-2.3-3s-1.1-2.3-1.5-3.6s-0.5-2.6-0.5-4c0-1.4,0.2-2.7,0.5-4
			c0.3-1.3,0.8-2.5,1.4-3.7s1.4-2.2,2.2-3.2s1.8-1.8,2.9-2.5c1.1-0.7,2.3-1.2,3.5-1.6s2.6-0.6,4-0.6c2.3,0,4.3,0.3,6.2,1.1
			c1.7,0.6,3.2,1.4,4.3,2.5 M93.7,40.7c0-0.7-0.1-1.3-0.3-1.9s-0.5-1.2-0.8-1.7c-0.4-0.5-0.8-0.9-1.4-1.2s-1.2-0.5-1.9-0.5
			c-0.7,0-1.4,0.1-2,0.4c-0.6,0.3-1.1,0.6-1.5,1.1c-0.4,0.5-0.7,1-0.9,1.6s-0.3,1.3-0.3,1.9c0,0.7,0.1,1.3,0.3,2s0.5,1.2,0.8,1.8
			c0.4,0.5,0.8,1,1.4,1.3s1.2,0.5,1.9,0.5s1.4-0.1,2-0.4s1.1-0.7,1.5-1.2c0.4-0.5,0.7-1.1,0.9-1.7S93.7,41.4,93.7,40.7z"/>
	</g>
	<path class="st13" d="M51.4,44.9c0,1.9-0.3,3.6-1,5c-0.7,1.4-1.6,2.6-2.7,3.6c-1.1,0.9-2.5,1.7-4,2.1c-1.5,0.5-3.2,0.7-4.9,0.7
		c-0.7,0-1.4-0.1-2.2-0.3s-1.6-0.4-2.5-0.7c-0.8-0.3-1.6-0.6-2.4-0.9c-0.8-0.3-1.5-0.6-2-0.9l0.9-8.6c1.2,0.7,2.5,1.2,3.9,1.6
		c1.4,0.4,2.8,0.6,4.2,0.6c0.3,0,0.6,0,1,0c0.4,0,0.7-0.1,1.1-0.2c0.3-0.1,0.6-0.3,0.9-0.5s0.3-0.5,0.3-0.9c0-0.3-0.1-0.5-0.2-0.7
		s-0.4-0.3-0.6-0.5s-0.6-0.2-0.9-0.3c-0.3-0.1-0.7-0.1-1-0.1s-0.6,0-0.9,0s-0.5,0-0.7,0c-1.2,0-2.3-0.2-3.2-0.6
		c-1-0.4-1.8-1-2.5-1.7c-0.7-0.7-1.2-1.6-1.6-2.6s-0.6-2.1-0.6-3.3c0-1.6,0.3-3.1,1-4.4s1.5-2.4,2.6-3.3c1.1-0.9,2.4-1.6,3.8-2.1
		c1.4-0.5,2.9-0.7,4.4-0.7c0.7,0,1.4,0,2.1,0.1c0.7,0.1,1.4,0.1,2.2,0.3s1.4,0.3,2.1,0.5s1.3,0.4,1.9,0.7L49,35.1
		c-0.9-0.3-1.9-0.6-3-0.8c-1-0.2-2-0.3-3-0.3c-0.2,0-0.4,0-0.7,0c-0.3,0-0.6,0-0.9,0.1c-0.3,0-0.6,0.1-1,0.2s-0.6,0.2-0.8,0.3
		c-0.2,0.1-0.5,0.3-0.6,0.5c-0.2,0.2-0.2,0.4-0.2,0.7c0,0.3,0.1,0.6,0.3,0.7c0.2,0.2,0.5,0.3,0.8,0.4c0.3,0.1,0.7,0.2,1.1,0.2
		s0.8,0.1,1.2,0.1c0.4,0,0.8,0,1.1,0c0.3,0,0.6,0,0.8,0c1.1,0.1,2.1,0.3,3,0.7s1.6,0.9,2.3,1.6s1.1,1.5,1.4,2.4S51.4,43.8,51.4,44.9
		z"/>
	<path class="st14" d="M72.6,27.6l-0.8,8.8c-0.4-0.1-0.8-0.2-1.2-0.2s-0.8-0.1-1.2-0.1c-1,0-1.9,0.1-2.8,0.4
		c-0.9,0.2-1.7,0.6-2.4,1.1c-0.7,0.5-1.2,1.2-1.6,1.9S62,41.2,62,42.3c0,0.8,0.1,1.4,0.3,2s0.5,1.1,1,1.4c0.4,0.4,0.9,0.7,1.5,0.9
		s1.3,0.3,2,0.3c0.5,0,1-0.1,1.6-0.2c0.5-0.1,1.1-0.2,1.6-0.4s1.1-0.4,1.6-0.6s1-0.5,1.4-0.8l-0.3,9.8c-0.5,0.3-1.1,0.5-1.8,0.7
		c-0.6,0.2-1.3,0.4-1.9,0.6c-0.7,0.2-1.3,0.3-2,0.4s-1.3,0.1-1.9,0.1c-2,0-3.8-0.4-5.4-1.1s-3-1.7-4.2-3c-1.2-1.3-2.1-2.7-2.7-4.4
		c-0.6-1.7-1-3.5-1-5.4c0-2.3,0.3-4.4,1-6.4c0.6-2,1.6-3.7,2.8-5.1c1.2-1.4,2.8-2.6,4.7-3.4c1.8-0.8,4-1.2,6.4-1.2
		c1,0,1.9,0.1,2.9,0.2S71.7,27.2,72.6,27.6z"/>
	<path class="st14" d="M148.2,27l-0.2,8.8l-6.2,0.2L141,55.4l-8.8,0.5l-0.8-19.3l-6.2,0.3l0.2-9.8L148.2,27z"/>
	<path class="st14" d="M170.7,45.7c0,1.9-0.3,3.5-1,4.9s-1.6,2.5-2.7,3.4c-1.1,0.9-2.5,1.6-4,2c-1.5,0.4-3.2,0.6-4.9,0.6
		c-0.7,0-1.4-0.1-2.2-0.3c-0.8-0.2-1.6-0.4-2.5-0.7s-1.6-0.6-2.4-0.9c-0.8-0.3-1.4-0.6-2.1-0.9l0.9-8.2c1.2,0.7,2.5,1.2,3.9,1.6
		c1.4,0.4,2.9,0.6,4.2,0.6c0.3,0,0.6,0,1,0c0.4,0,0.7-0.1,1.1-0.2c0.3-0.1,0.6-0.3,0.9-0.5c0.2-0.2,0.4-0.5,0.4-0.9
		c0-0.3-0.1-0.5-0.2-0.7s-0.4-0.3-0.6-0.5s-0.6-0.2-0.9-0.3s-0.7-0.1-1-0.1c-0.3,0-0.6,0-0.9,0s-0.5,0-0.7,0c-1.2,0-2.3-0.2-3.2-0.6
		s-1.8-0.9-2.5-1.6c-0.7-0.7-1.2-1.5-1.6-2.5s-0.6-2.1-0.6-3.2c0-1.6,0.3-3.1,1-4.4s1.5-2.4,2.6-3.3c1.1-0.9,2.4-1.6,3.8-2.1
		c1.4-0.5,2.9-0.7,4.4-0.7c0.7,0,1.4,0,2.1,0.1s1.4,0.1,2.1,0.3s1.4,0.3,2.1,0.5c0.7,0.2,1.3,0.4,1.9,0.7l-0.8,8.4
		c-0.9-0.3-1.9-0.6-3-0.8c-1-0.2-2-0.3-3-0.3c-0.2,0-0.4,0-0.7,0c-0.3,0-0.6,0-0.9,0.1s-0.6,0.1-0.9,0.2c-0.3,0.1-0.6,0.2-0.9,0.3
		c-0.2,0.1-0.4,0.3-0.6,0.5c-0.1,0.2-0.2,0.4-0.2,0.7c0,0.3,0.1,0.5,0.3,0.7s0.5,0.3,0.8,0.4c0.3,0.1,0.7,0.1,1.1,0.1
		c0.4,0,0.8,0,1.2,0c0.4,0,0.8,0,1.1-0.1c0.4,0,0.6,0,0.9,0c1.1,0.1,2.1,0.3,3,0.7s1.6,0.9,2.3,1.6c0.6,0.7,1.1,1.5,1.4,2.4
		C170.5,43.6,170.7,44.6,170.7,45.7z"/>
	<path class="st13" d="M191.2,34.3c0.1,0,0.1,0,0.2,0.1c0.4,0.8,0.6,1.6,0.9,2.4c0.2,0.9,0.4,1.7,0.4,2.6c0,0.9-0.2,1.8-0.5,2.7
		c-0.3,0.9-0.8,1.7-1.4,2.3c-0.6,0.7-1.3,1.2-2.2,1.6s-1.8,0.6-2.7,0.6c-0.7,0-1.2-0.1-1.7-0.4s-0.9-0.6-1.3-1
		c-0.4-0.4-0.7-0.8-0.9-1.2c-0.3-0.4-0.5-0.9-0.7-1.2s-0.4-0.7-0.7-1s-0.5-0.4-0.8-0.4c-0.2,0-0.4,0.1-0.5,0.1s-0.2,0.2-0.3,0.3
		c-0.1,0.1-0.1,0.3-0.1,0.5s0,0.3,0,0.5c0,0.5,0.1,1,0.3,1.5c0.2,0.5,0.3,1,0.5,1.4c0,0,0,0,0,0l-5.9,0.8c-0.1,0-0.2,0-0.2-0.1
		c-0.2-0.7-0.4-1.5-0.5-2.2c-0.1-0.8-0.2-1.6-0.2-2.3c0-1,0.1-2,0.4-2.9s0.7-1.6,1.3-2.2c0.6-0.6,1.2-1.1,2-1.4
		c0.8-0.3,1.7-0.5,2.8-0.5c0.8,0,1.5,0.1,2,0.3c0.5,0.2,1,0.5,1.4,0.9c0.4,0.3,0.7,0.7,0.9,1.1s0.4,0.8,0.6,1.1
		c0.2,0.3,0.4,0.6,0.5,0.9s0.4,0.3,0.6,0.3c0.2,0,0.3,0,0.5-0.1s0.2-0.2,0.4-0.3c0.1-0.1,0.2-0.3,0.2-0.4c0.1-0.2,0.1-0.3,0.1-0.4
		c0-0.5-0.1-1-0.4-1.4c-0.2-0.5-0.5-0.8-0.7-1.2c0,0,0-0.1,0-0.1L191.2,34.3z"/>
	
		<ellipse transform="matrix(0.7071 -0.7071 0.7071 0.7071 -15.9118 102.3215)" class="st15" cx="115.6" cy="70.4" rx="7.3" ry="6.6"/>
	<ellipse transform="matrix(0.7071 -0.7071 0.7071 0.7071 -26.1745 77.5444)" class="st15" cx="80.5" cy="70.4" rx="7.3" ry="6.6"/>
	<path class="st13" d="M122.9,64.9c0,0.2-0.2,0.3-0.5,0.3c-15.2-1.7-30.8-1.7-47.5-0.2c-0.1,0-0.2-0.1-0.2-0.2V59
		c0-0.1,0.1-0.2,0.2-0.2c15.8-1.1,31.7-1.2,47.8,0c0.1,0,0.2,0.1,0.2,0.2V64.9z"/>
	<line class="st16" x1="69.3" y1="63.8" x2="54.7" y2="65"/>
	<line class="st16" x1="69.3" y1="67" x2="54.7" y2="68.2"/>
	<line class="st16" x1="69.3" y1="70.2" x2="54.7" y2="71.4"/>
	<path class="st17" d="M76.7,69.9c-0.2,2.4,1.6,4.5,3.8,4.6"/>
	<path class="st17" d="M111.8,69.9c-0.2,2.4,1.6,4.5,3.8,4.6"/>
	<path class="st13" d="M119.1,25.4l-6.2-2.2c-1.5-0.5-1.9-2.5-0.7-3.5l5.1-4.4c1.2-1,3-0.8,4,0.8c1.2,2.1,1.7,4.9,1.1,7.1
		C121.9,24.7,120.8,25.9,119.1,25.4z"/>
</g>
</svg>
