<?xml version="1.0" encoding="utf-8"?>
<!-- Generator: Adobe Illustrator 27.9.2, SVG Export Plug-In . SVG Version: 6.00 Build 0)  -->
<svg version="1.1" xmlns="http://www.w3.org/2000/svg" xmlns:xlink="http://www.w3.org/1999/xlink" x="0px" y="0px"
	 viewBox="0 0 200 82.57" style="enable-background:new 0 0 200 82.57;" xml:space="preserve">
<style type="text/css">
	.st0{fill:#2C8741;}
	.st1{display:none;}
	.st2{display:inline;fill:#23488F;stroke:#000000;stroke-miterlimit:10;}
	.st3{display:inline;fill:#A6DFF8;}
	.st4{display:inline;fill:#74C591;stroke:#000000;stroke-miterlimit:10;}
	.st5{display:inline;fill:#F3FAFE;stroke:#000000;stroke-miterlimit:10;}
	.st6{display:inline;fill:#36B14A;}
	.st7{display:inline;fill:#2B50A3;}
	.st8{display:inline;fill:#9EDBEB;stroke:#000000;stroke-miterlimit:10;}
	.st9{display:inline;fill:#74C591;}
	.st10{display:inline;fill:#F3FAFE;}
	.st11{display:inline;fill:#048442;}
	.st12{display:inline;fill:#349244;stroke:#000000;stroke-miterlimit:10;}
	.st13{display:inline;fill:#F3FAFE;stroke:#349244;stroke-width:0.5;stroke-miterlimit:10;}
	.st14{display:inline;}
	.st15{fill:#F3FAFE;stroke:#349244;stroke-width:0.5;}
	.st16{display:inline;fill:#F3FAFE;stroke:#F3FAFE;stroke-linecap:round;stroke-miterlimit:10;}
	.st17{display:inline;fill:#F3FAFE;stroke:#349244;stroke-linecap:round;stroke-miterlimit:10;}
	.st18{fill:#FFFFFF;stroke:#2C8741;stroke-width:0.5;stroke-miterlimit:10;}
	.st19{fill:#FFFFFF;stroke:#2C8741;stroke-width:1.5;stroke-miterlimit:10;}
	.st20{fill:#FFFFFF;stroke:#2C8741;stroke-width:0.5;}
	.st21{fill:#FFFFFF;stroke:#2C8741;stroke-miterlimit:10;}
	.st22{fill:#FFFFFF;stroke:#FFFFFF;stroke-width:1.5;stroke-linecap:round;stroke-miterlimit:10;}
	.st23{fill:#FFFFFF;}
	.st24{fill:#FFFFFF;stroke:#2C8741;stroke-width:1.5;stroke-linecap:round;stroke-miterlimit:10;}
</style>
<g id="background">
	<rect class="st0" width="200" height="82.57"/>
</g>
<g id="color_palettes" class="st1">
	<rect x="213.75" y="-54.87" class="st2" width="23.61" height="23.61"/>
	<rect x="213.75" y="-26.12" class="st3" width="23.61" height="23.61"/>
	<rect x="213.75" y="31.38" class="st4" width="23.61" height="23.61"/>
	<rect x="213.75" y="60.13" class="st5" width="23.61" height="23.61"/>
	<rect x="213.75" y="2.63" class="st6" width="23.61" height="23.61"/>
	<rect x="244.04" y="-54.87" class="st7" width="23.61" height="23.61"/>
	<rect x="244.04" y="-26.12" class="st8" width="23.61" height="23.61"/>
	<rect x="244.04" y="31.38" class="st9" width="23.61" height="23.61"/>
	<rect x="244.04" y="60.13" class="st10" width="23.61" height="23.61"/>
	<rect x="244.04" y="2.63" class="st11" width="23.61" height="23.61"/>
	<rect x="274.33" y="2.63" class="st12" width="23.61" height="23.61"/>
	<path class="st13" d="M101.62-135.85v5.87c0,0.09,0.07,0.16,0.16,0.16h9.76c0.07,0,0.12,0.02,0.12,0.1l-0.07,5.01h6.12l0-11.11
		c0-0.08-0.06-0.14-0.14-0.14h-15.83C101.67-135.97,101.62-135.91,101.62-135.85z"/>
	<g class="st14">
		<path class="st15" d="M123.45-106c0,1.42-0.16,2.79-0.49,4.1c-0.33,1.32-0.8,2.55-1.42,3.71c-0.62,1.15-1.36,2.21-2.25,3.17
			s-1.87,1.78-2.97,2.47c-1.1,0.69-2.3,1.22-3.59,1.6c-1.29,0.38-2.67,0.57-4.12,0.57c-1.4,0-2.74-0.18-4.01-0.54
			s-2.46-0.86-3.57-1.51c-1.11-0.65-2.11-1.43-3.01-2.34s-1.66-1.93-2.29-3.04c-0.63-1.11-1.12-2.31-1.47-3.59
			c-0.35-1.28-0.53-2.61-0.53-4c0-1.36,0.16-2.69,0.49-3.99c0.33-1.3,0.8-2.53,1.42-3.68c0.62-1.15,1.36-2.21,2.23-3.18
			s1.85-1.8,2.94-2.5c1.08-0.7,2.26-1.25,3.52-1.64c1.26-0.39,2.6-0.58,4-0.58c2.26,0,4.32,0.35,6.19,1.05
			c1.86,0.7,3.45,1.7,4.77,3.01c1.32,1.3,2.34,2.88,3.06,4.72S123.45-108.27,123.45-106z M113.06-105.39c0-0.67-0.1-1.32-0.29-1.95
			c-0.19-0.63-0.48-1.19-0.85-1.68s-0.84-0.89-1.39-1.19s-1.19-0.46-1.91-0.46c-0.73,0-1.39,0.13-1.96,0.4
			c-0.58,0.27-1.07,0.63-1.49,1.09c-0.41,0.46-0.73,1-0.95,1.61c-0.22,0.62-0.33,1.27-0.33,1.95c0,0.65,0.09,1.31,0.28,1.96
			c0.19,0.65,0.47,1.25,0.84,1.78c0.37,0.53,0.84,0.96,1.39,1.29c0.55,0.33,1.2,0.49,1.93,0.49c0.73,0,1.39-0.14,1.98-0.43
			s1.08-0.68,1.49-1.17c0.41-0.49,0.72-1.06,0.94-1.7S113.06-104.7,113.06-105.39z"/>
		<path class="st15" d="M99.04-94.16c-0.62,0.67-1.18,1.02-2.13,1.61c-1.1,0.69-2.3,1.22-3.59,1.6c-1.29,0.38-2.67,0.57-4.12,0.57
			c-1.4,0-2.74-0.18-4.01-0.54s-2.46-0.86-3.57-1.51c-1.11-0.65-2.11-1.43-3.01-2.34s-1.66-1.93-2.29-3.04
			c-0.63-1.11-1.12-2.31-1.47-3.59c-0.35-1.28-0.53-2.61-0.53-4c0-1.36,0.16-2.69,0.49-3.99c0.33-1.3,0.8-2.53,1.42-3.68
			c0.62-1.15,1.36-2.21,2.23-3.18s1.85-1.8,2.94-2.5c1.08-0.7,2.26-1.25,3.52-1.64c1.26-0.39,2.6-0.58,4-0.58
			c2.26,0,4.32,0.35,6.19,1.05c1.68,0.63,3.2,1.42,4.31,2.52 M93.65-105.39c0-0.67-0.1-1.32-0.29-1.95
			c-0.19-0.63-0.48-1.19-0.85-1.68s-0.84-0.89-1.39-1.19c-0.55-0.3-1.19-0.46-1.91-0.46c-0.73,0-1.39,0.13-1.96,0.4
			c-0.58,0.27-1.07,0.63-1.49,1.09c-0.41,0.46-0.73,1-0.95,1.61c-0.22,0.62-0.33,1.27-0.33,1.95c0,0.65,0.09,1.31,0.28,1.96
			c0.19,0.65,0.47,1.25,0.84,1.78c0.37,0.53,0.84,0.96,1.39,1.29c0.55,0.33,1.2,0.49,1.93,0.49c0.73,0,1.39-0.14,1.98-0.43
			s1.08-0.68,1.49-1.17c0.41-0.49,0.72-1.06,0.94-1.7S93.65-104.7,93.65-105.39z"/>
	</g>
	
		<ellipse transform="matrix(0.7071 -0.7071 0.7071 0.7071 87.4175 59.522)" class="st13" cx="115.56" cy="-75.76" rx="7.31" ry="6.6"/>
	
		<ellipse transform="matrix(0.7071 -0.7071 0.7071 0.7071 77.1545 34.7448)" class="st13" cx="80.52" cy="-75.76" rx="7.31" ry="6.6"/>
	<path class="st13" d="M122.95-81.2c0,0.22-0.22,0.34-0.48,0.27c-15.19-1.72-30.8-1.74-47.53-0.22c-0.12,0.01-0.22-0.08-0.22-0.2
		v-5.75c0-0.11,0.08-0.19,0.19-0.2c15.78-1.06,31.71-1.15,47.85,0c0.1,0.01,0.19,0.1,0.19,0.2V-81.2z"/>
	<line class="st16" x1="69.26" y1="-82.36" x2="54.66" y2="-81.13"/>
	<line class="st16" x1="69.26" y1="-79.13" x2="54.66" y2="-77.91"/>
	<line class="st16" x1="69.26" y1="-75.91" x2="54.66" y2="-74.68"/>
	<path class="st17" d="M76.73-76.2c-0.16,2.4,1.55,4.47,3.84,4.62"/>
	<path class="st17" d="M111.77-76.2c-0.16,2.4,1.55,4.47,3.84,4.62"/>
	<path class="st13" d="M119.08-120.75l-6.24-2.16c-1.5-0.52-1.87-2.46-0.68-3.5l5.06-4.39c1.2-1.04,2.99-0.76,4.01,0.81
		c1.17,2.1,1.65,4.91,1.09,7.09C121.93-121.43,120.75-120.25,119.08-120.75z"/>
</g>
<g id="design">
	<path class="st18" d="M25.92,30.85c0.08-0.02,0.15,0.02,0.18,0.09c0.35,0.78,0.64,1.58,0.87,2.4c0.24,0.87,0.35,1.74,0.35,2.61
		c0,0.94-0.17,1.85-0.51,2.73c-0.34,0.87-0.82,1.65-1.42,2.32c-0.61,0.67-1.33,1.21-2.17,1.61c-0.84,0.4-1.75,0.6-2.73,0.6
		c-0.67,0-1.25-0.13-1.73-0.38c-0.48-0.25-0.9-0.57-1.26-0.96c-0.35-0.38-0.66-0.8-0.93-1.25s-0.51-0.86-0.73-1.25
		c-0.22-0.38-0.45-0.7-0.67-0.96c-0.22-0.25-0.48-0.38-0.76-0.38c-0.19,0-0.35,0.05-0.47,0.14c-0.12,0.09-0.22,0.21-0.29,0.35
		c-0.07,0.14-0.12,0.29-0.15,0.46c-0.03,0.17-0.04,0.32-0.04,0.46c0,0.5,0.09,0.99,0.26,1.5c0.17,0.5,0.34,0.96,0.51,1.42
		c0.01,0.02,0,0.02-0.01,0.03l-5.92,0.76c-0.08,0.01-0.16-0.04-0.18-0.12c-0.2-0.73-0.36-1.46-0.49-2.2
		c-0.14-0.78-0.21-1.56-0.21-2.34c0-1.04,0.14-1.99,0.43-2.87c0.29-0.87,0.71-1.62,1.27-2.24c0.55-0.62,1.24-1.1,2.04-1.45
		c0.81-0.35,1.73-0.52,2.77-0.52c0.79,0,1.46,0.12,2,0.35c0.54,0.23,1,0.52,1.37,0.86s0.67,0.71,0.9,1.11
		c0.23,0.4,0.44,0.77,0.62,1.11c0.18,0.34,0.36,0.63,0.53,0.86s0.38,0.35,0.63,0.35c0.18,0,0.33-0.04,0.47-0.12
		c0.14-0.08,0.25-0.18,0.35-0.3c0.09-0.12,0.17-0.26,0.21-0.42c0.05-0.15,0.07-0.3,0.07-0.44c0-0.48-0.13-0.96-0.38-1.42
		c-0.25-0.47-0.48-0.85-0.73-1.23c-0.01-0.03,0.01-0.05,0.03-0.05L25.92,30.85z"/>
	<path class="st19" d="M101.62,8.4v5.87c0,0.09,0.07,0.16,0.16,0.16l9.76,0c0.07,0,0.12,0.02,0.12,0.1l-0.07,5.01h6.12l0-11.11
		c0-0.08-0.06-0.14-0.14-0.14l-15.83,0C101.67,8.28,101.62,8.33,101.62,8.4z"/>
	<g>
		<path class="st20" d="M123.45,36.71c0,1.42-0.16,2.79-0.49,4.1c-0.33,1.32-0.8,2.55-1.42,3.71c-0.62,1.15-1.36,2.21-2.25,3.17
			s-1.87,1.78-2.97,2.47c-1.1,0.69-2.3,1.22-3.59,1.6c-1.29,0.38-2.67,0.57-4.12,0.57c-1.4,0-2.74-0.18-4.01-0.54
			s-2.46-0.86-3.57-1.51c-1.11-0.65-2.11-1.43-3.01-2.34s-1.66-1.93-2.29-3.04c-0.63-1.11-1.12-2.31-1.47-3.59
			c-0.35-1.28-0.53-2.61-0.53-4c0-1.36,0.16-2.69,0.49-3.99c0.33-1.3,0.8-2.53,1.42-3.68c0.62-1.15,1.36-2.21,2.23-3.18
			s1.85-1.8,2.94-2.5c1.08-0.7,2.26-1.25,3.52-1.64s2.6-0.58,4-0.58c2.26,0,4.32,0.35,6.19,1.05s3.45,1.7,4.77,3.01
			c1.32,1.3,2.34,2.88,3.06,4.72C123.08,32.37,123.45,34.43,123.45,36.71z M113.06,37.31c0-0.67-0.1-1.32-0.29-1.95
			c-0.19-0.63-0.48-1.19-0.85-1.68s-0.84-0.89-1.39-1.19s-1.19-0.46-1.91-0.46c-0.73,0-1.39,0.13-1.96,0.4
			c-0.58,0.27-1.07,0.63-1.49,1.09c-0.41,0.46-0.73,1-0.95,1.61c-0.22,0.62-0.33,1.27-0.33,1.95c0,0.65,0.09,1.31,0.28,1.96
			c0.19,0.65,0.47,1.25,0.84,1.78c0.37,0.53,0.84,0.96,1.39,1.29c0.55,0.33,1.2,0.49,1.93,0.49c0.73,0,1.39-0.14,1.98-0.43
			s1.08-0.68,1.49-1.17c0.41-0.49,0.72-1.06,0.94-1.7C112.95,38.66,113.06,38,113.06,37.31z"/>
		<path class="st20" d="M99.04,48.54c-0.62,0.67-1.18,1.02-2.13,1.61c-1.1,0.69-2.3,1.22-3.59,1.6c-1.29,0.38-2.67,0.57-4.12,0.57
			c-1.4,0-2.74-0.18-4.01-0.54s-2.46-0.86-3.57-1.51c-1.11-0.65-2.11-1.43-3.01-2.34s-1.66-1.93-2.29-3.04
			c-0.63-1.11-1.12-2.31-1.47-3.59c-0.35-1.28-0.53-2.61-0.53-4c0-1.36,0.16-2.69,0.49-3.99c0.33-1.3,0.8-2.53,1.42-3.68
			s1.36-2.21,2.23-3.18s1.85-1.8,2.94-2.5c1.08-0.7,2.26-1.25,3.52-1.64s2.6-0.58,4-0.58c2.26,0,4.32,0.35,6.19,1.05
			c1.68,0.63,3.2,1.42,4.31,2.52 M93.65,37.31c0-0.67-0.1-1.32-0.29-1.95c-0.19-0.63-0.48-1.19-0.85-1.68s-0.84-0.89-1.39-1.19
			c-0.55-0.3-1.19-0.46-1.91-0.46c-0.73,0-1.39,0.13-1.96,0.4c-0.58,0.27-1.07,0.63-1.49,1.09c-0.41,0.46-0.73,1-0.95,1.61
			c-0.22,0.62-0.33,1.27-0.33,1.95c0,0.65,0.09,1.31,0.28,1.96c0.19,0.65,0.47,1.25,0.84,1.78c0.37,0.53,0.84,0.96,1.39,1.29
			c0.55,0.33,1.2,0.49,1.93,0.49c0.73,0,1.39-0.14,1.98-0.43s1.08-0.68,1.49-1.17c0.41-0.49,0.72-1.06,0.94-1.7
			C93.55,38.66,93.65,38,93.65,37.31z"/>
	</g>
	<path class="st18" d="M51.43,41.49c0,1.9-0.33,3.56-0.99,4.98c-0.66,1.42-1.56,2.6-2.7,3.55c-1.14,0.94-2.48,1.65-4.01,2.12
		c-1.53,0.47-3.18,0.71-4.94,0.71c-0.68,0-1.42-0.09-2.24-0.27s-1.63-0.41-2.46-0.68s-1.63-0.56-2.4-0.87s-1.45-0.61-2.05-0.88
		l0.91-8.57c1.18,0.71,2.48,1.24,3.92,1.61c1.43,0.37,2.85,0.55,4.23,0.55c0.26,0,0.58-0.01,0.96-0.03s0.73-0.08,1.07-0.19
		s0.63-0.26,0.86-0.47s0.35-0.51,0.35-0.89c0-0.26-0.08-0.49-0.25-0.68s-0.38-0.34-0.64-0.46s-0.56-0.21-0.89-0.27
		s-0.66-0.11-0.98-0.14s-0.62-0.04-0.89-0.04s-0.5,0-0.67,0c-1.19,0-2.28-0.21-3.25-0.62c-0.98-0.42-1.82-0.99-2.52-1.74
		s-1.24-1.62-1.63-2.64c-0.39-1.02-0.58-2.12-0.58-3.32c0-1.64,0.33-3.1,0.99-4.4c0.66-1.3,1.54-2.4,2.64-3.31
		c1.1-0.91,2.37-1.6,3.79-2.09c1.43-0.49,2.9-0.73,4.43-0.73c0.68,0,1.38,0.02,2.1,0.07s1.44,0.14,2.15,0.26s1.41,0.28,2.09,0.48
		s1.32,0.44,1.93,0.73l-0.79,8.44c-0.94-0.32-1.93-0.59-2.96-0.8c-1.03-0.21-2.04-0.32-3.03-0.32c-0.18,0-0.41,0-0.7,0.01
		s-0.58,0.03-0.89,0.06s-0.63,0.09-0.95,0.16s-0.6,0.16-0.85,0.28s-0.45,0.27-0.6,0.47s-0.22,0.42-0.21,0.69
		c0.01,0.3,0.13,0.55,0.34,0.74s0.49,0.33,0.83,0.44s0.71,0.18,1.12,0.22s0.81,0.07,1.22,0.07s0.78,0.01,1.12,0s0.63,0,0.85,0.03
		c1.11,0.07,2.11,0.3,2.99,0.71c0.89,0.4,1.64,0.94,2.26,1.6s1.09,1.46,1.41,2.38S51.43,40.38,51.43,41.49z"/>
	<path class="st20" d="M72.58,24.15l-0.75,8.78c-0.4-0.11-0.8-0.19-1.19-0.23s-0.78-0.06-1.19-0.06c-0.98,0-1.92,0.12-2.82,0.37
		c-0.89,0.25-1.68,0.63-2.37,1.14c-0.69,0.51-1.23,1.16-1.64,1.94c-0.41,0.78-0.61,1.71-0.61,2.78c0,0.78,0.11,1.45,0.34,2.03
		c0.23,0.58,0.55,1.05,0.98,1.43s0.94,0.67,1.54,0.86c0.6,0.19,1.27,0.29,2.01,0.29c0.51,0,1.04-0.05,1.58-0.16s1.08-0.25,1.62-0.43
		s1.06-0.39,1.56-0.62s0.96-0.49,1.39-0.75l-0.33,9.77c-0.54,0.28-1.12,0.52-1.75,0.74s-1.26,0.4-1.92,0.56
		c-0.66,0.16-1.32,0.28-1.98,0.36c-0.66,0.08-1.29,0.12-1.88,0.12c-1.97,0-3.76-0.37-5.38-1.1s-3-1.74-4.16-3s-2.06-2.74-2.69-4.42
		c-0.64-1.68-0.96-3.47-0.96-5.36c0-2.27,0.32-4.39,0.97-6.36c0.64-1.97,1.59-3.68,2.85-5.13c1.25-1.45,2.81-2.59,4.66-3.41
		c1.85-0.82,3.98-1.24,6.37-1.24c0.96,0,1.93,0.08,2.91,0.23S71.68,23.73,72.58,24.15z"/>
	<path class="st20" d="M148.19,23.61l-0.21,8.82l-6.2,0.25l-0.75,19.3l-8.78,0.46l-0.79-19.3l-6.2,0.33l0.25-9.81L148.19,23.61z"/>
	<path class="st20" d="M170.69,42.28c0,1.9-0.33,3.54-0.99,4.92c-0.66,1.38-1.56,2.52-2.7,3.41s-2.48,1.55-4.01,1.98
		s-3.18,0.63-4.94,0.63c-0.68,0-1.42-0.09-2.24-0.27c-0.81-0.18-1.63-0.41-2.46-0.68s-1.63-0.56-2.4-0.87
		c-0.77-0.31-1.45-0.61-2.05-0.88l0.91-8.15c1.18,0.71,2.48,1.24,3.92,1.61c1.43,0.37,2.85,0.55,4.23,0.55
		c0.26,0,0.58-0.01,0.96-0.03c0.37-0.02,0.73-0.08,1.07-0.19c0.34-0.1,0.63-0.26,0.86-0.47c0.24-0.21,0.35-0.51,0.35-0.89
		c0-0.26-0.08-0.49-0.25-0.68s-0.38-0.34-0.64-0.46c-0.26-0.12-0.56-0.21-0.89-0.27s-0.66-0.11-0.98-0.14
		c-0.32-0.03-0.62-0.04-0.89-0.04s-0.5,0-0.67,0c-1.19,0-2.28-0.19-3.25-0.56s-1.82-0.9-2.52-1.59s-1.24-1.52-1.63-2.5
		c-0.39-0.98-0.58-2.06-0.58-3.25c0-1.64,0.33-3.1,0.99-4.4c0.66-1.3,1.54-2.4,2.64-3.31c1.1-0.91,2.37-1.6,3.79-2.09
		c1.43-0.49,2.9-0.73,4.43-0.73c0.68,0,1.38,0.02,2.1,0.07s1.44,0.14,2.15,0.26s1.41,0.28,2.09,0.48c0.68,0.19,1.32,0.44,1.93,0.73
		l-0.79,8.44c-0.94-0.32-1.93-0.59-2.96-0.8c-1.03-0.21-2.04-0.32-3.03-0.32c-0.18,0-0.41,0-0.7,0.01s-0.58,0.03-0.89,0.06
		s-0.63,0.09-0.95,0.16c-0.32,0.07-0.6,0.16-0.85,0.28c-0.25,0.12-0.45,0.27-0.6,0.47c-0.15,0.19-0.22,0.42-0.21,0.69
		c0.01,0.3,0.13,0.54,0.34,0.71s0.49,0.29,0.83,0.36s0.71,0.11,1.12,0.11c0.41,0,0.81-0.01,1.22-0.03c0.4-0.02,0.78-0.04,1.12-0.06
		s0.63-0.02,0.85-0.01c1.11,0.07,2.11,0.3,2.99,0.71s1.64,0.94,2.26,1.6c0.62,0.67,1.09,1.46,1.41,2.38
		C170.53,40.16,170.69,41.17,170.69,42.28z"/>
	<path class="st18" d="M191.2,30.85c0.08-0.02,0.15,0.02,0.18,0.09c0.35,0.78,0.64,1.58,0.87,2.4c0.24,0.87,0.35,1.74,0.35,2.61
		c0,0.94-0.17,1.85-0.51,2.73c-0.34,0.87-0.82,1.65-1.42,2.32c-0.61,0.67-1.33,1.21-2.17,1.61s-1.75,0.6-2.73,0.6
		c-0.67,0-1.25-0.13-1.73-0.38c-0.48-0.25-0.9-0.57-1.26-0.96c-0.35-0.38-0.66-0.8-0.93-1.25s-0.51-0.86-0.73-1.25
		c-0.22-0.38-0.45-0.7-0.67-0.96c-0.22-0.25-0.48-0.38-0.76-0.38c-0.19,0-0.35,0.05-0.47,0.14s-0.22,0.21-0.29,0.35
		c-0.07,0.14-0.12,0.29-0.15,0.46s-0.04,0.32-0.04,0.46c0,0.5,0.09,0.99,0.26,1.5s0.34,0.96,0.51,1.42c0.01,0.02,0,0.02-0.01,0.03
		l-5.92,0.76c-0.08,0.01-0.16-0.04-0.18-0.12c-0.2-0.73-0.36-1.46-0.49-2.2c-0.14-0.78-0.21-1.56-0.21-2.34
		c0-1.04,0.14-1.99,0.43-2.87s0.71-1.62,1.27-2.24c0.55-0.62,1.24-1.1,2.04-1.45c0.81-0.35,1.73-0.52,2.77-0.52
		c0.79,0,1.46,0.12,2,0.35c0.54,0.23,1,0.52,1.37,0.86s0.67,0.71,0.9,1.11c0.23,0.4,0.44,0.77,0.62,1.11
		c0.18,0.34,0.36,0.63,0.53,0.86s0.38,0.35,0.63,0.35c0.18,0,0.33-0.04,0.47-0.12c0.14-0.08,0.25-0.18,0.35-0.3
		c0.09-0.12,0.17-0.26,0.21-0.42c0.05-0.15,0.07-0.3,0.07-0.44c0-0.48-0.13-0.96-0.38-1.42s-0.48-0.85-0.73-1.23
		c-0.01-0.03,0.01-0.05,0.03-0.05L191.2,30.85z"/>
	<path class="st21" d="M122.95,61.98c0,0.24-0.22,0.38-0.48,0.3c-15.19-1.93-30.8-1.95-47.53-0.24c-0.12,0.01-0.22-0.09-0.22-0.22
		v-6.44c0-0.12,0.08-0.22,0.19-0.22c15.78-1.19,31.71-1.29,47.85,0c0.1,0.01,0.19,0.11,0.19,0.22V61.98z"/>
	<g>
		<line class="st22" x1="69.26" y1="58.7" x2="54.66" y2="59.93"/>
		<line class="st22" x1="69.26" y1="63" x2="54.66" y2="64.23"/>
		<line class="st22" x1="69.26" y1="67.31" x2="54.66" y2="68.53"/>
	</g>
	<path class="st19" d="M119.25,23.49l-6.24-2.16c-1.5-0.52-1.87-2.46-0.68-3.5l5.06-4.39c1.2-1.04,2.99-0.76,4.01,0.81
		c1.17,2.1,1.65,4.91,1.09,7.09C122.1,22.81,120.92,24,119.25,23.49z"/>
	<g>
		<g>
			<path class="st23" d="M79.96,75.17c-1.92,0-3.69-0.71-4.98-2.01c-1.4-1.4-2.11-3.31-2-5.38c0.11-2.04,1-4,2.51-5.51
				c1.6-1.6,3.76-2.52,5.91-2.52c1.92,0,3.69,0.71,4.98,2.01c2.86,2.86,2.64,7.75-0.51,10.9C84.27,74.25,82.12,75.17,79.96,75.17z"
				/>
			<path class="st0" d="M81.4,60.49c1.65,0,3.25,0.59,4.45,1.79c2.58,2.58,2.35,6.98-0.51,9.84c-1.52,1.52-3.49,2.3-5.38,2.3
				c-1.65,0-3.25-0.59-4.45-1.79c-2.58-2.58-2.35-6.98,0.51-9.84C77.54,61.27,79.5,60.49,81.4,60.49 M81.4,58.99L81.4,58.99
				c-2.35,0-4.7,1-6.44,2.74c-1.64,1.64-2.61,3.78-2.73,6.01c-0.12,2.29,0.67,4.4,2.22,5.95c1.44,1.44,3.4,2.23,5.51,2.23
				c2.35,0,4.7-1,6.44-2.74c3.44-3.44,3.66-8.8,0.51-11.96C85.47,59.78,83.51,58.99,81.4,58.99L81.4,58.99z"/>
		</g>
		<path class="st24" d="M76.89,67.02c-0.16,2.4,1.55,4.47,3.84,4.62"/>
	</g>
	<g>
		<g>
			<path class="st23" d="M115.19,75.17c-1.92,0-3.68-0.71-4.98-2.01c-1.4-1.4-2.11-3.31-2-5.38c0.11-2.04,1-4,2.51-5.51
				c1.6-1.6,3.76-2.52,5.91-2.52c1.92,0,3.69,0.71,4.98,2.01c1.4,1.4,2.11,3.31,2,5.38c-0.11,2.04-1,4-2.51,5.51
				C119.5,74.25,117.35,75.17,115.19,75.17z"/>
			<path class="st0" d="M116.63,60.49c1.65,0,3.25,0.59,4.45,1.79c2.58,2.58,2.35,6.98-0.51,9.84c-1.52,1.52-3.49,2.3-5.38,2.3
				c-1.65,0-3.25-0.59-4.45-1.79c-2.58-2.58-2.35-6.98,0.51-9.84C112.77,61.27,114.74,60.49,116.63,60.49 M116.63,58.99
				L116.63,58.99c-2.35,0-4.7,1-6.44,2.74c-1.64,1.64-2.61,3.78-2.73,6.01c-0.12,2.29,0.67,4.4,2.22,5.95
				c1.44,1.44,3.4,2.23,5.51,2.23c2.35,0,4.7-1,6.44-2.74c1.64-1.64,2.61-3.78,2.73-6.01c0.12-2.29-0.67-4.4-2.22-5.95
				C120.7,59.78,118.75,58.99,116.63,58.99L116.63,58.99z"/>
		</g>
		<path class="st24" d="M112.13,67.02c-0.16,2.4,1.55,4.47,3.84,4.62"/>
	</g>
</g>
</svg>
