<?xml version="1.0" encoding="utf-8"?>
<!-- Generator: Adobe Illustrator 27.9.1, SVG Export Plug-In . SVG Version: 6.00 Build 0)  -->
<svg version="1.1" id="Layer_1" xmlns="http://www.w3.org/2000/svg" xmlns:xlink="http://www.w3.org/1999/xlink" x="0px" y="0px"
	 viewBox="0 0 400 400" style="enable-background:new 0 0 400 400;" xml:space="preserve">
<style type="text/css">
	.st0{fill:#606F31;stroke:#606F31;stroke-miterlimit:10;}
	.st1{fill:none;stroke:#513211;stroke-width:10;stroke-miterlimit:10;}
	.st2{fill:#606F31;}
	.st3{font-family:'Almarai-ExtraBold';}
	.st4{font-size:14.3119px;}
	.st5{fill:none;}
	.st6{fill:#FFFFFF;}
	.st7{font-family:'Almarai-Bold';}
	.st8{font-size:12px;}
	.st9{font-family:'Almarai-Regular';}
	.st10{font-size:10px;}
</style>
<path class="st0" d="M273.95,231.73l87.57,46.87c11.5-23.64,17.96-50.19,17.96-78.26c0-29.89-7.33-58.07-20.28-82.85l-86.28,49.81
	c5.02,10.02,7.87,21.31,7.87,33.28C280.78,211.71,278.32,222.25,273.95,231.73z"/>
<path class="st0" d="M139.08,169.03l-97.3-52.08c-13.13,24.91-20.57,53.28-20.57,83.4c0,32.39,8.6,62.77,23.63,88.99l32.83-18.96
	l62.47-36.07c-5.16-10.12-8.09-21.58-8.09-33.72C132.05,189.3,134.58,178.61,139.08,169.03z"/>
<path class="st0" d="M202.73,274.85c-24.4-1.19-45.71-14.15-58.38-33.32l-95.17,54.95c31.8,49.89,87.62,82.99,151.17,82.99
	c0.8,0,1.59-0.03,2.39-0.04V274.85z"/>
<path class="st0" d="M270.03,239.12c-12.28,20.23-33.94,34.13-58.94,35.68v104.33c63.34-3.75,117.82-40.39,146.59-93.1
	L270.03,239.12z"/>
<path class="st0" d="M202.73,21.25c-0.8-0.01-1.59-0.04-2.39-0.04c-65.83,0-123.36,35.52-154.49,88.43l97.2,52.03
	c12.48-20.28,34.42-34.11,59.68-35.34V21.25z"/>
<path class="st0" d="M211.09,21.55v104.83c24.16,1.5,45.19,14.55,57.66,33.68l86.4-49.88C325.79,59.87,272.62,25.19,211.09,21.55z"
	/>
<circle class="st1" cx="206.59" cy="201.42" r="59.65"/>
<text transform="matrix(1 0 0 1 168 190.0654)"><tspan x="0" y="0" class="st2 st3 st4">MEMBERS</tspan><tspan x="23.46" y="17.17" class="st2 st3 st4">GET</tspan><tspan x="16.08" y="34.35" class="st2 st3 st4">MORE</tspan></text>
<rect x="115.74" y="62.71" class="st5" width="77.69" height="11.44"/>
<text transform="matrix(1 0 0 1 119.2563 71.3066)" class="st6 st7 st8">CREDIBILITY</text>
<rect x="219.77" y="62.71" class="st5" width="77.69" height="11.44"/>
<text transform="matrix(1 0 0 1 219.7677 71.3066)" class="st6 st7 st8">PARTNERS</text>
<rect x="14.7" y="179.01" class="st5" width="125.44" height="11.44"/>
<text transform="matrix(1 0 0 1 58.9721 187.6065)" class="st6 st7 st8">VOICE</text>
<rect x="274.56" y="179.01" class="st5" width="125.44" height="11.44"/>
<text transform="matrix(1 0 0 1 307.2437 187.6065)" class="st6 st7 st8">VISIBILITY</text>
<rect x="115.74" y="293.51" class="st5" width="77.69" height="11.44"/>
<text transform="matrix(1 0 0 1 139.4999 302.1013)" class="st6 st7 st8">GROWTH</text>
<rect x="223.15" y="293.51" class="st5" width="77.69" height="11.44"/>
<text transform="matrix(1 0 0 1 223.1455 302.1013)" class="st6 st7 st8">COMMUNITY</text>
<rect x="86" y="78.52" class="st5" width="107.37" height="43.23"/>
<text transform="matrix(1 0 0 1 108.3535 85.6801)"><tspan x="0" y="0" class="st6 st9 st10">Reputation matters! </tspan><tspan x="0.54" y="12" class="st6 st9 st10">Consumers respect </tspan><tspan x="-11.22" y="24" class="st6 st9 st10">Chamber membership</tspan></text>
<rect x="103.77" y="309.13" class="st5" width="89.6" height="36.14"/>
<text transform="matrix(1 0 0 1 115.7329 316.286)"><tspan x="0" y="0" class="st6 st9 st10">Attend workshops </tspan><tspan x="4.75" y="12" class="st6 st9 st10">to help grow your </tspan><tspan x="38.89" y="24" class="st6 st9 st10">business</tspan></text>
<rect x="219.77" y="78.52" class="st5" width="101.9" height="45.73"/>
<text transform="matrix(1 0 0 1 219.7676 85.6801)"><tspan x="0" y="0" class="st6 st9 st10">Build and strengthen </tspan><tspan x="0" y="12" class="st6 st9 st10">your network with </tspan><tspan x="0" y="24" class="st6 st9 st10">fellow members</tspan></text>
<rect x="32.62" y="196.72" class="st5" width="89.6" height="36.14"/>
<text transform="matrix(1 0 0 1 36.1877 203.8747)"><tspan x="0" y="0" class="st6 st9 st10">Make your voice be </tspan><tspan x="-0.38" y="12" class="st6 st9 st10">heard in all levels of </tspan><tspan x="15.19" y="24" class="st6 st9 st10">government</tspan></text>
<rect x="296.8" y="196.72" class="st5" width="77.66" height="36.14"/>
<text transform="matrix(1 0 0 1 298.2481 203.8747)"><tspan x="0" y="0" class="st6 st9 st10">Get noticed as an </tspan><tspan x="0.5" y="12" class="st6 st9 st10">active member of </tspan><tspan x="5.67" y="24" class="st6 st9 st10">the community</tspan></text>
<rect x="224.05" y="309.13" class="st5" width="89.6" height="36.14"/>
<text transform="matrix(1 0 0 1 224.0453 316.286)"><tspan x="0" y="0" class="st6 st9 st10">Give back to the </tspan><tspan x="0" y="12" class="st6 st9 st10">community to show </tspan><tspan x="0" y="24" class="st6 st9 st10">that you care </tspan></text>
</svg>
